<svg xmlns="http://www.w3.org/2000/svg" width="3648" height="1108" viewBox="0 0 3648 1108" version="1.1">
	<path d="M 1710.008 538.750 C 1710.012 614.907, 1710.378 657.760, 1711.058 662 C 1715.059 686.946, 1730.833 708.925, 1752.328 719.505 C 1757.372 721.988, 1765.100 725.022, 1769.500 726.248 C 1777.491 728.473, 1777.593 728.476, 1865 728.488 C 1961.141 728.501, 1956.713 728.754, 1972.853 722.340 C 1997.550 712.525, 2014.947 690.759, 2019.881 663.500 C 2020.379 660.750, 2020.947 605.400, 2021.143 540.500 L 2021.500 422.500 2003.250 422.227 L 1985 421.955 1985 537.388 C 1985 647.872, 1984.919 653.083, 1983.105 658.909 C 1978.149 674.835, 1963.683 687.843, 1947.460 690.963 C 1943.203 691.782, 1918.784 692.022, 1862 691.805 L 1782.500 691.500 1776.757 689.181 C 1764.517 684.238, 1753.762 673.453, 1748.773 661.119 L 1746.500 655.500 1746.226 538.750 L 1745.952 422 1727.976 422 L 1710 422 1710.008 538.750 M 1427.867 424.077 C 1395.952 426.719, 1369.521 447.240, 1359.583 477.093 C 1355.157 490.389, 1354.843 497.974, 1355.219 582.500 C 1355.567 660.712, 1355.593 661.580, 1357.808 669.500 C 1365.594 697.336, 1384.417 717.108, 1410.500 724.851 C 1423.899 728.828, 1432.653 729.148, 1517.500 728.763 C 1596.583 728.403, 1598.692 728.343, 1606.614 726.245 C 1640.753 717.201, 1661.934 692.620, 1666.001 657.323 C 1666.784 650.531, 1667.017 623.430, 1666.756 569.500 C 1666.385 492.800, 1666.342 491.358, 1664.162 483 C 1655.402 449.409, 1629.017 427.413, 1593.436 424.039 C 1580.677 422.829, 1442.563 422.861, 1427.867 424.077 M 497.381 425 C 480.043 427.540, 465.489 436.857, 457.596 450.469 C 456.310 452.686, 442.302 483.750, 426.466 519.500 C 410.630 555.250, 383.531 616.225, 366.247 655 C 348.962 693.775, 334.582 726.522, 334.290 727.772 L 333.758 730.044 353.102 729.772 L 372.445 729.500 388.573 694.500 C 407.656 653.087, 431.362 601.375, 452.523 555 C 479.910 494.982, 489.799 473.901, 492.441 469.909 C 493.870 467.751, 496.906 464.632, 499.188 462.979 C 502.665 460.460, 503.918 460.081, 506.919 460.643 C 515.240 462.201, 521.431 466.448, 525.452 473.355 C 526.778 475.635, 545.919 524.300, 567.987 581.500 C 590.054 638.700, 611.979 695.513, 616.709 707.750 L 625.308 730 644.654 730 C 655.294 730, 663.999 729.663, 663.998 729.250 C 663.996 728.264, 631.241 641.067, 570.621 480.667 C 564.836 465.359, 558.686 450.627, 556.955 447.930 C 550.257 437.492, 537.345 428.472, 524.907 425.540 C 518.206 423.960, 506.096 423.723, 497.381 425 M 707 576.392 L 707 729.045 725.250 728.773 L 743.500 728.500 743.754 594.201 L 744.007 459.902 750.254 460.506 C 788.669 464.225, 812.481 477.975, 826.686 504.642 C 837.334 524.631, 842.334 548.689, 843.975 587.824 C 845 612.287, 845.743 617.927, 849.664 631 C 861.288 669.755, 896.036 703.796, 939.500 719.010 C 954.886 724.396, 969.420 726.922, 989.250 727.657 L 1007 728.316 1007 576.158 L 1007 424 988.500 424 L 970 424 970 557 C 970 630.150, 969.663 690, 969.250 689.999 C 967.379 689.998, 956.554 685.338, 946.611 680.254 C 927.107 670.282, 907.567 654.037, 896.712 638.769 C 886.096 623.838, 881.050 609.068, 881.017 592.830 C 880.993 580.783, 879.213 555.641, 877.454 542.500 C 874.278 518.771, 870.091 504.097, 861.475 486.500 C 848.002 458.981, 829.598 442.806, 800.122 432.579 C 781.821 426.229, 771.514 424.867, 737.250 424.268 L 707 423.739 707 576.392 M 1041 576.500 L 1041 729 1059 729 L 1077 729 1077 691.460 C 1077 648.144, 1076.577 650.310, 1086.901 640.752 C 1091.322 636.659, 1096.482 633.427, 1106.217 628.651 C 1125.499 619.193, 1139.813 614.759, 1192.500 601.927 C 1233.695 591.894, 1262.158 583.296, 1275.987 576.708 C 1280.105 574.746, 1283.547 573.222, 1283.635 573.321 C 1283.724 573.419, 1283.957 608.375, 1284.154 651 L 1284.512 728.500 1302.756 728.773 L 1321 729.045 1321 576.523 L 1321 424 1303 424 L 1285 424 1285 471.850 L 1285 519.700 1282.025 523.807 C 1277.532 530.010, 1269.758 535.630, 1257.530 541.515 C 1242.147 548.918, 1224.178 554.417, 1176.097 566.432 C 1121.570 580.059, 1097.556 587.589, 1083.098 595.592 C 1080.677 596.933, 1078.601 597.910, 1078.486 597.765 C 1078.104 597.282, 1077.012 495.099, 1077.006 459.250 L 1077 424 1059 424 L 1041 424 1041 576.500 M 2064.476 425.214 C 2064.206 425.921, 2064.102 494.450, 2064.243 577.500 L 2064.500 728.500 2082.711 728.772 L 2100.923 729.045 2101.211 683.772 L 2101.500 638.500 2104.186 633.410 C 2108.650 624.949, 2115.387 620.130, 2129.428 615.354 C 2144.707 610.158, 2180.351 605.347, 2195.744 606.405 C 2249.116 610.070, 2291.728 640.479, 2308.358 686.766 C 2311.502 695.516, 2315 712.116, 2315 718.282 C 2315 720.739, 2315.281 724.156, 2315.625 725.875 L 2316.250 729 2334.125 729 L 2352 729 2351.992 719.750 C 2351.958 681.265, 2339.050 647.818, 2313.033 618.793 C 2304.156 608.891, 2289.316 598.751, 2277.500 594.514 C 2275.933 593.952, 2276.664 593.492, 2280.880 592.386 C 2295.943 588.435, 2306.708 582.253, 2318.122 571 C 2331.623 557.689, 2337.797 543.482, 2340.145 520.318 C 2342.579 496.319, 2336.396 474.591, 2321.975 456.469 C 2311.043 442.730, 2294.727 432.784, 2273.251 426.765 C 2265.570 424.612, 2264.595 424.590, 2165.233 424.260 C 2084.188 423.991, 2064.871 424.174, 2064.476 425.214 M 2395.974 425 C 2395.959 425.550, 2395.936 433.538, 2395.921 442.750 L 2395.895 459.500 2535.947 459.753 L 2676 460.007 2676 442.003 L 2676 424 2536 424 C 2443.351 424, 2395.991 424.338, 2395.974 425 M 2798 424.677 C 2757.167 431.282, 2729.143 456.731, 2720.634 494.936 C 2718.570 504.208, 2718.504 506.701, 2718.502 576.500 C 2718.500 642.848, 2718.645 649.167, 2720.351 657 C 2728.222 693.140, 2752.925 718.472, 2788.848 727.242 C 2797.301 729.306, 2799.797 729.363, 2897.250 729.730 L 2997 730.106 2997 711.577 L 2997 693.047 2898.750 692.764 L 2800.500 692.481 2795.149 690.206 C 2784.310 685.598, 2779.852 682.824, 2773.252 676.582 C 2765.574 669.319, 2760.531 661.572, 2757.287 652.058 C 2755.058 645.519, 2755.052 645.302, 2755.052 576.500 C 2755.052 507.698, 2755.058 507.481, 2757.287 500.942 C 2763.814 481.797, 2780.455 466.600, 2800.460 461.515 C 2805.579 460.214, 2819.877 460, 2901.710 460 L 2997 460 2997 442 L 2997 424 2898.750 424.136 C 2844.713 424.211, 2799.375 424.454, 2798 424.677 M 3101.808 425.974 C 3090.633 428.330, 3087.026 429.524, 3078.597 433.658 C 3053.034 446.193, 3035.608 469.762, 3030.558 498.628 C 3029.256 506.074, 3029.006 518.673, 3029.005 577 C 3029.002 660.409, 3029.146 661.822, 3039.665 682 C 3051.217 704.157, 3069.431 718.748, 3095.500 726.727 L 3104.500 729.482 3206.273 729.777 L 3308.045 730.072 3307.773 711.786 L 3307.500 693.500 3208.500 693 L 3109.500 692.500 3103.327 689.854 C 3084.642 681.847, 3069.723 664.755, 3066.095 647.201 C 3065.363 643.657, 3065.019 620.135, 3065.058 576.201 C 3065.122 502.596, 3065.024 503.746, 3072.320 490.737 C 3079.144 478.568, 3091.758 467.891, 3105.277 462.841 L 3111.500 460.516 3209.750 460.230 L 3308 459.944 3308 441.972 L 3308 424 3209.250 424.070 C 3117.486 424.136, 3109.885 424.270, 3101.808 425.974 M 1429.500 461.039 C 1410.412 464.952, 1395.069 480.724, 1391.976 499.613 C 1390.693 507.445, 1390.703 644.599, 1391.986 652.500 C 1394.795 669.784, 1409.611 686.098, 1426.460 690.458 C 1435.434 692.780, 1586.618 692.771, 1595.540 690.448 C 1606.218 687.667, 1616.573 679.913, 1623.342 669.629 C 1630.355 658.974, 1630.065 663.266, 1629.768 574.417 L 1629.500 494.456 1626.176 487.705 C 1619.428 473.999, 1606.171 463.605, 1592.114 460.999 C 1585.594 459.790, 1435.412 459.827, 1429.500 461.039 M 2101 523.020 L 2101 585.041 2104.750 583.136 C 2118.546 576.128, 2145.740 571.347, 2191 567.974 C 2257.709 563.002, 2282.290 556.052, 2295.927 538.303 C 2301.791 530.672, 2303.386 524.983, 2303.446 511.489 C 2303.499 499.808, 2303.406 499.286, 2300.092 492.489 C 2297.712 487.607, 2294.546 483.389, 2289.592 478.500 C 2281.849 470.857, 2274.237 466.339, 2263.645 463.098 C 2256.933 461.044, 2255.153 461, 2178.895 461 L 2101 461 2101 523.020 M 2519 608 L 2519 729 2537.500 729 L 2556 729 2556 608 L 2556 487 2537.500 487 L 2519 487 2519 608 M 2791 576.500 L 2791 595 2894 595 L 2997 595 2997 576.500 L 2997 558 2894 558 L 2791 558 2791 576.500" stroke="none" fill="#ffffff" fill-rule="evenodd"/>
</svg>